<svg width="16" height="8" viewBox="0 0 16 8" fill="none" xmlns="http://www.w3.org/2000/svg">
<path fill-rule="evenodd" clip-rule="evenodd" d="M0.430053 0.512057C0.49418 0.437234 0.572424 0.375782 0.660313 0.331214C0.748202 0.286645 0.844011 0.259833 0.942267 0.25231C1.04052 0.244788 1.1393 0.256703 1.23295 0.287373C1.3266 0.318044 1.41328 0.366868 1.48805 0.431057L8.00005 6.01206L14.5121 0.431057C14.6639 0.309186 14.8571 0.251129 15.051 0.26916C15.2449 0.287191 15.4241 0.379896 15.5508 0.527678C15.6776 0.67546 15.7419 0.866737 15.7302 1.06107C15.7185 1.25541 15.6316 1.43757 15.4881 1.56906L8.48805 7.56906C8.35213 7.68552 8.17904 7.74953 8.00005 7.74953C7.82106 7.74953 7.64797 7.68552 7.51205 7.56906L0.512053 1.56906C0.361238 1.43957 0.267993 1.25551 0.252805 1.05732C0.237617 0.859126 0.301728 0.663009 0.431053 0.512057H0.430053Z" fill="#2C4246"/>
</svg>
