<svg width="24" height="24" viewBox="0 0 24 24" fill="none" xmlns="http://www.w3.org/2000/svg">
<path d="M20.4604 0H3.53787C1.59204 0 0 1.59204 0 3.53787V20.4621C0 22.408 1.59204 24 3.53787 24H20.4621C22.408 24 24 22.408 24 20.4621V3.53787C23.9982 1.59204 22.408 0 20.4604 0ZM20.2331 12.8097H17.3851V23.1138H13.1237V12.8097H10.9921V9.25771H13.1237V7.12615C13.1237 4.22863 14.3266 2.50481 17.7495 2.50481H20.5948V6.05594H18.8153C17.485 6.05594 17.3966 6.5539 17.3966 7.47993L17.3851 9.25771H20.609L20.2331 12.8097Z" fill="#D9D9D9"/>
</svg>
