<svg width="26" height="20" viewBox="0 0 26 20" fill="none" xmlns="http://www.w3.org/2000/svg">
<path d="M15.6666 16C16.1802 16.0003 16.674 16.1981 17.0458 16.5525C17.4175 16.907 17.6386 17.3909 17.6633 17.9039C17.688 18.4169 17.5143 18.9198 17.1784 19.3083C16.8424 19.6968 16.3698 19.9411 15.8586 19.9907L15.6666 20H10.3333C9.81963 19.9997 9.32579 19.8019 8.95407 19.4475C8.58235 19.093 8.36124 18.6091 8.33655 18.0961C8.31187 17.5831 8.48551 17.0802 8.82149 16.6917C9.15746 16.3032 9.63003 16.0589 10.1413 16.0093L10.3333 16H15.6666ZM19.6666 8C20.197 8 20.7057 8.21071 21.0808 8.58579C21.4559 8.96086 21.6666 9.46957 21.6666 10C21.6666 10.5304 21.4559 11.0391 21.0808 11.4142C20.7057 11.7893 20.197 12 19.6666 12H6.33325C5.80282 12 5.29411 11.7893 4.91904 11.4142C4.54397 11.0391 4.33325 10.5304 4.33325 10C4.33325 9.46957 4.54397 8.96086 4.91904 8.58579C5.29411 8.21071 5.80282 8 6.33325 8H19.6666ZM23.6666 0C24.197 0 24.7057 0.210713 25.0808 0.585786C25.4559 0.960859 25.6666 1.46957 25.6666 2C25.6666 2.53043 25.4559 3.03914 25.0808 3.41421C24.7057 3.78929 24.197 4 23.6666 4H2.33325C1.80282 4 1.29411 3.78929 0.919038 3.41421C0.543966 3.03914 0.333252 2.53043 0.333252 2C0.333252 1.46957 0.543966 0.960859 0.919038 0.585786C1.29411 0.210713 1.80282 0 2.33325 0H23.6666Z" fill="#D9D9D9"/>
</svg>
